<svg width="129" height="111" viewBox="0 0 129 111" fill="none" xmlns="http://www.w3.org/2000/svg">
<path d="M75.25 55.5C75.25 58.9225 73.1 61.8825 69.875 63.455V101.75H59.125V63.455C55.9 61.8363 53.75 58.9225 53.75 55.5C53.75 50.4125 58.5875 46.25 64.5 46.25C70.4125 46.25 75.25 50.4125 75.25 55.5ZM64.5 27.75C46.7088 27.75 32.25 40.1913 32.25 55.5C32.25 63.5475 36.2812 70.8087 42.6775 75.85L50.31 69.2825C45.8487 65.9062 43 61.0038 43 55.5C43 45.2787 52.6212 37 64.5 37C76.3788 37 86 45.2787 86 55.5C86 61.0038 83.1513 65.9062 78.69 69.2825L86.3225 75.85C92.7187 70.8087 96.75 63.5475 96.75 55.5C96.75 40.1913 82.2912 27.75 64.5 27.75ZM64.5 9.25C34.83 9.25 10.75 29.97 10.75 55.5C10.75 68.6812 17.2 80.5212 27.4663 88.985L35.0988 82.4175C26.7675 75.665 21.5 66.0912 21.5 55.5C21.5 35.1038 40.7963 18.5 64.5 18.5C88.2037 18.5 107.5 35.1038 107.5 55.5C107.5 66.0912 102.232 75.665 93.9012 82.4175L101.534 88.985C111.8 80.5212 118.25 68.6812 118.25 55.5C118.25 29.97 94.17 9.25 64.5 9.25Z" fill="black"/>
</svg>
